<?xml version="1.0" standalone="no"?>
<!DOCTYPE svg PUBLIC "-//W3C//DTD SVG 20010904//EN"
 "http://www.w3.org/TR/2001/REC-SVG-20010904/DTD/svg10.dtd">
<svg version="1.0" xmlns="http://www.w3.org/2000/svg"
 width="480.000000pt" height="480.000000pt" viewBox="0 0 480.000000 480.000000"
 preserveAspectRatio="xMidYMid meet">
<metadata>
Created by potrace 1.11, written by Peter Selinger 2001-2013
</metadata>
<g transform="translate(0.000000,480.000000) scale(0.100000,-0.100000)"
fill="#000000" stroke="none">
<path d="M2310 4313 c-58 -9 -153 -47 -207 -82 -225 -146 -314 -446 -202 -682
49 -105 108 -174 199 -234 217 -144 505 -113 692 76 91 92 145 215 153 345 19
311 -217 571 -524 579 -47 1 -97 0 -111 -2z"/>
<path d="M3695 2943 c-168 -33 -282 -103 -369 -226 -128 -183 -136 -410 -20
-603 33 -56 146 -174 165 -174 5 0 26 -10 47 -23 136 -85 364 -83 519 4 206
117 315 354 272 589 -34 180 -191 355 -368 411 -61 19 -200 32 -246 22z"/>
<path d="M940 1569 c-197 -31 -362 -172 -431 -366 -29 -80 -33 -229 -8 -318
64 -231 266 -392 504 -401 160 -6 291 45 405 156 299 289 176 784 -226 914
-58 19 -177 26 -244 15z"/>
<path d="M2270 1561 c-237 -60 -403 -260 -415 -501 -16 -305 207 -555 512
-575 164 -11 298 40 418 160 67 66 128 165 141 228 19 92 23 124 19 189 -5 89
-27 159 -82 262 -8 16 -44 57 -79 92 -65 65 -148 114 -237 141 -73 21 -200 23
-277 4z"/>
<path d="M3675 1569 c-99 -18 -235 -90 -296 -156 -277 -298 -165 -768 215
-901 82 -28 208 -38 289 -21 133 28 285 135 355 251 100 167 106 378 14 550
-34 66 -142 176 -207 212 -109 60 -257 86 -370 65z"/>
</g>
</svg>
